<?xml version="1.0" encoding="UTF-8"?>
<svg xmlns="http://www.w3.org/2000/svg" width="256" height="256" viewBox="0 0 256 256">
  <rect width="100%" height="100%" fill="#FFFFFF"/>
  <path d="M 241 55 L 226 54 L 202 41 L 176 45 L 165 54 L 148 81 L 52 161 L 58 161 L 57 164 L 14 192 L 73 166 L 105 165 L 127 172 L 144 203 L 135 210 L 146 207 L 166 214 L 162 208 L 150 204 L 137 181 L 141 173 L 157 172 L 185 201 L 178 210 L 193 207 L 209 214 L 205 207 L 193 204 L 170 177 L 170 169 L 190 158 L 206 141 L 214 120 L 213 85 L 217 72 L 226 61 Z M 196 51 L 201 51 L 203 53 L 203 54 L 204 55 L 204 56 L 203 57 L 203 58 L 201 60 L 200 60 L 199 61 L 198 61 L 197 60 L 196 60 L 193 57 L 193 55 L 194 54 L 194 53 Z" fill="#D72638" fill-rule="evenodd"/>
</svg>
